<?xml version="1.0" ?><!DOCTYPE svg  PUBLIC '-//W3C//DTD SVG 1.1//EN'  'http://www.w3.org/Graphics/SVG/1.1/DTD/svg11.dtd'><svg enable-background="new 0 0 128 128" height="128px" id="Слой_1" version="1.1" viewBox="0 0 128 128" width="128px" xml:space="preserve" xmlns="http://www.w3.org/2000/svg" xmlns:xlink="http://www.w3.org/1999/xlink">
<g><path d="M46.082,34.191h-7.673c-2.209,0-4-1.791-4-4s1.791-4,4-4h7.673c2.209,0,4,1.791,4,4   S48.291,34.191,46.082,34.191z" fill="#EA075F"/></g>
<g><path d="M86.657,104.365c-2.311,0-4.489-0.989-6.136-2.786c-2.214-2.417-3.288-6.033-2.947-9.922   c0.594-6.783,5.268-12.098,10.641-12.098c2.31,0,4.488,0.989,6.135,2.786c2.214,2.416,3.288,6.033,2.947,9.923   C96.703,99.052,92.029,104.365,86.657,104.365z M88.215,86.56c-1.292,0-3.362,2.224-3.668,5.709   c-0.196,2.249,0.458,3.841,1.136,4.581c0.473,0.516,0.851,0.516,0.975,0.516c1.291,0,3.361-2.224,3.667-5.708   c0.196-2.25-0.458-3.843-1.136-4.583C88.717,86.56,88.339,86.56,88.215,86.56z" fill="#3A3C47"/></g>
<g><path d="M47.53,87.956c-0.102,0-0.205-0.004-0.309-0.014c-1.926-0.168-3.35-1.865-3.182-3.791l0.656-7.513   c0.168-1.926,1.858-3.357,3.792-3.182c1.926,0.168,3.35,1.865,3.182,3.791l-0.656,7.513C50.854,86.583,49.326,87.956,47.53,87.956z   " fill="#14C4ED"/></g>
<g><path d="M79.245,95.463c-0.103,0-0.205-0.004-0.309-0.014c-1.926-0.168-3.351-1.865-3.182-3.791   c0.718-8.209,6.288-14.64,12.683-14.64c1.933,0,3.5,1.567,3.5,3.5s-1.567,3.5-3.5,3.5c-2.354,0-5.297,3.528-5.71,8.249   C82.568,94.09,81.04,95.463,79.245,95.463z" fill="#14C4ED"/></g>
<g><path d="M81.142,85.992c-0.386,0-0.775-0.111-1.119-0.344c-0.915-0.619-1.154-1.863-0.535-2.777   c1.565-2.313,3.651-3.969,5.873-4.666c1.054-0.328,2.178,0.256,2.507,1.31c0.331,1.054-0.256,2.177-1.31,2.507   c-1.363,0.428-2.697,1.525-3.758,3.092C82.413,85.685,81.783,85.992,81.142,85.992z" fill="#1BD1EF"/></g>
<g><path d="M83.816,83.197c-0.626,0-1.242-0.293-1.632-0.841c-0.641-0.9-0.429-2.149,0.471-2.789   c0.86-0.611,1.771-1.069,2.706-1.362c1.056-0.328,2.177,0.256,2.506,1.311c0.33,1.054-0.256,2.176-1.311,2.506   c-0.534,0.168-1.066,0.438-1.583,0.806C84.622,83.077,84.217,83.197,83.816,83.197z" fill="#49E1E8"/></g>
<path d="M87.436,88.463h-25.05c-0.354-3.421-1.609-6.478-3.644-8.698c-1.993-2.175-4.619-3.372-7.396-3.372  c-1.933,0-3.5,1.567-3.5,3.5s1.567,3.5,3.5,3.5c0.814,0,1.566,0.37,2.235,1.101c0.865,0.944,1.465,2.353,1.741,3.97h-1.615  c-1.933,0-3.5,1.567-3.5,3.5s1.567,3.5,3.5,3.5h33.729c1.933,0,3.5-1.567,3.5-3.5S89.368,88.463,87.436,88.463z" fill="#14C4ED"/>
<g><path d="M49.509,104.365c-2.31,0-4.489-0.989-6.135-2.786c-2.214-2.416-3.288-6.032-2.948-9.922   c0.593-6.783,5.267-12.098,10.641-12.098c2.309,0,4.487,0.989,6.133,2.785c2.214,2.416,3.289,6.032,2.949,9.923   C59.556,99.052,54.881,104.365,49.509,104.365z M51.067,86.56c-1.292,0-3.363,2.224-3.667,5.708   c-0.197,2.25,0.457,3.843,1.135,4.583c0.472,0.515,0.85,0.515,0.974,0.515c1.292,0,3.362-2.224,3.667-5.708   c0.197-2.25-0.458-3.843-1.136-4.583C51.569,86.56,51.191,86.56,51.067,86.56z" fill="#3A3C47"/></g>
<path d="M63.427,26.693H47.956c-1.933,0-3.5,1.567-3.5,3.5s1.567,3.5,3.5,3.5h3.917l-3.758,42.945  c-0.168,1.925,1.256,3.623,3.182,3.791c0.104,0.01,0.207,0.014,0.309,0.014c1.795,0,3.323-1.373,3.483-3.195l3.811-43.555h4.527  c1.933,0,3.5-1.567,3.5-3.5S65.359,26.693,63.427,26.693z" fill="#C0D2DD"/>
<path d="M57.601,74.579c-0.572-0.624-1.351-0.998-2.183-1.095l1.471-16.81c0.168-1.926-1.256-3.624-3.182-3.792  c-1.933-0.163-3.623,1.256-3.792,3.182l-1.521,17.379h-0.212c-1.933,0-3.5,1.567-3.5,3.5s1.567,3.5,3.5,3.5h3.018l-0.782,8.937  c-0.705,0.641-1.156,1.556-1.156,2.583c0,1.933,1.567,3.5,3.5,3.5h0.943c0,0,0,0,0.001,0c0.001,0,0.002,0,0.003,0  c1.795,0,3.323-1.373,3.483-3.195l1.314-15.02C58.593,76.271,58.264,75.303,57.601,74.579z" fill="#14C4ED"/>
<g><path d="M44.764,100.996c-0.573,0-1.142-0.245-1.538-0.72c-1.753-2.104-2.593-5.197-2.305-8.487   c0.26-2.988,1.451-5.855,3.269-7.865c0.741-0.819,2.005-0.883,2.825-0.142s0.883,2.006,0.142,2.825   c-1.244,1.376-2.064,3.391-2.25,5.529c-0.194,2.214,0.327,4.3,1.394,5.579c0.707,0.849,0.592,2.109-0.256,2.816   C45.669,100.844,45.215,100.996,44.764,100.996z" fill="#5A5B60"/></g>
<g><path d="M51.201,72.172c-0.057,0-0.115-0.002-0.173-0.007c-1.101-0.095-1.917-1.063-1.822-2.163l1.192-13.952   c0.094-1.1,1.064-1.909,2.163-1.822c1.101,0.094,1.917,1.063,1.822,2.163l-1.192,13.951C53.102,71.385,52.228,72.172,51.201,72.172   z" fill="#1BD1EF"/></g>
<g><path d="M52.056,62.17c-0.057,0-0.115-0.002-0.172-0.007c-1.101-0.094-1.917-1.062-1.823-2.163l0.337-3.949   c0.094-1.101,1.074-1.909,2.163-1.823c1.101,0.094,1.917,1.062,1.823,2.163l-0.337,3.949C53.958,61.383,53.083,62.17,52.056,62.17z   " fill="#49E1E8"/></g>
<g><path d="M44.166,89.486c-0.303,0-0.611-0.068-0.9-0.215c-0.986-0.498-1.381-1.701-0.883-2.688   c0.503-0.995,1.111-1.89,1.808-2.66c0.741-0.819,2.005-0.883,2.825-0.142c0.819,0.741,0.882,2.006,0.142,2.825   c-0.458,0.505-0.862,1.104-1.204,1.781C45.6,89.085,44.896,89.486,44.166,89.486z" fill="#9FA0A5"/></g>
<path d="M60.427,28.193H46.956c-1.104,0-2,0.896-2,2s0.896,2,2,2h5.554L51.23,46.814  c-0.097,1.1,0.717,2.07,1.818,2.167c0.059,0.005,0.118,0.008,0.177,0.008c1.025,0,1.899-0.785,1.99-1.826l1.31-14.969h3.902  c1.104,0,2-0.896,2-2S61.531,28.193,60.427,28.193z" fill="#D3DEE2"/>
<path d="M56.692,30.193c0-1.104-0.896-2-2-2h-2.597c-1.104,0-2,0.896-2,2s0.896,2,2,2h0.414l-0.14,1.599  c-0.097,1.101,0.718,2.07,1.818,2.167c0.06,0.005,0.118,0.008,0.177,0.008c1.025,0,1.899-0.785,1.99-1.826l0.33-3.773  c0.002-0.025-0.004-0.039-0.003-0.062C56.683,30.268,56.692,30.232,56.692,30.193z" fill="#E6ECED"/>
<g><path d="M82.97,92.963h-2.625c-1.104,0-2-0.896-2-2s0.896-2,2-2h2.625c1.104,0,2,0.896,2,2   S84.074,92.963,82.97,92.963z" fill="#1BD1EF"/></g>
<path d="M55.919,76.943c0-1.104-0.896-2-2-2h-6.837c-1.104,0-2,0.896-2,2s0.896,2,2,2h4.654l-0.398,4.554  c-0.097,1.101,0.717,2.071,1.818,2.167c0.059,0.006,0.118,0.008,0.177,0.008c1.025,0,1.899-0.784,1.99-1.825l0.589-6.729  c0.002-0.023-0.005-0.037-0.004-0.06C55.91,77.02,55.919,76.982,55.919,76.943z" fill="#1BD1EF"/>
<g><path d="M50.819,78.943h-2.737c-1.104,0-2-0.896-2-2s0.896-2,2-2h2.737c1.104,0,2,0.896,2,2   S51.924,78.943,50.819,78.943z" fill="#49E1E8"/></g>
<g><path d="M72.396,34.191h-9.174c-2.209,0-4-1.791-4-4s1.791-4,4-4h9.174c2.209,0,4,1.791,4,4   S74.605,34.191,72.396,34.191z" fill="#EA075F"/></g>
<g><path d="M40.856,32.191h-3.924c-1.104,0-2-0.896-2-2s0.896-2,2-2h3.924c1.104,0,2,0.896,2,2   S41.961,32.191,40.856,32.191z" fill="#F44293"/></g>
<g><path d="M68.324,32.191h-6.601c-1.104,0-2-0.896-2-2s0.896-2,2-2h6.601c1.104,0,2,0.896,2,2   S69.429,32.191,68.324,32.191z" fill="#F44293"/></g>
</svg>